<?xml version="1.0" encoding="UTF-8"?>
<svg id="Camada_2" data-name="Camada 2" xmlns="http://www.w3.org/2000/svg" viewBox="0 0 545.06 209.2">
  <g id="Camada_2-2" data-name="Camada 2">
    <g>
      <path d="M114.61,3.16C90.71,1.64,14.61-17.15,21.76,58.29H0v42.56h21.76l-.97,104.46h57.55l-.97-102.47h27.08v-43.58h-26.6s-8.22-29.98,30.95-22.25l5.8-33.85Z"/>
      <rect x="131.54" y="2.68" width="51.26" height="37.72"/>
      <path d="M131.54,59.74v145.57h65.77s-65.87-42.73-64.31-58.37c2.22-18.02,46.35-81.53,74.06-87.19h-75.53Z"/>
      <path d="M372.59,94.6l-53.03,4.36c-14.46-36.49-79.91,7.33-9.06,12.08,0,0,67.47,3.36,67.47,44.98,0,0-3.02,50.35-56.73,52.36,0,0-54.04,5.71-81.23-13.09,23.37-22.76,49.88-64.43,96.67,1.68l1.01-77.54c-7.38,14.75-34.76,37.14-70.82,19.81,0,0-27.19-10.74-29.54-31.89,0,0-7.72-48.67,43.64-49.68,65.02.17,71.84-2.69,91.63,36.92Z"/>
      <circle cx="175.76" cy="122.79" r="6.75"/>
      <path d="M389.6,2.68v202.63h57.35v-82.03c0-3.19.63-6.34,1.92-9.26,2.63-5.96,8.21-14.78,18.21-14.78,15.09,0,20.63,14.09,20.63,19.12v86.96h57.35v-110.1c-2.42-23.86-51.65-63.69-97.6-17.61l-1.01-74.92h-56.85Z"/>
    </g>
  </g>
</svg>